<svg width="33" height="34" viewBox="0 0 33 34" fill="none" xmlns="http://www.w3.org/2000/svg">
<path d="M16.25 31.25C24.2581 31.25 30.75 24.7581 30.75 16.75C30.75 8.74187 24.2581 2.25 16.25 2.25C8.24187 2.25 1.75 8.74187 1.75 16.75C1.75 24.7581 8.24187 31.25 16.25 31.25Z" stroke="white" stroke-width="2.91667"/>
<path d="M3.00018 25L0.700195 33.15L9.15021 30.8L9.60016 28.2L4.10016 29.95L5.55017 24.7L3.00018 25Z" fill="white"/>
<path d="M4 30C4 29.95 5.75 24.15 5.75 24.15L9.95001 28.1L4 30Z" fill="#27D045"/>
<path d="M9.98428 9.5665C9.47376 9.92074 9.03853 10.3727 8.70382 10.8962C8.36911 11.4197 8.14154 12.0044 8.03426 12.6165C7.78426 14.5665 8.98428 16.5665 8.98428 16.5665C10.2015 18.3775 11.6467 20.0243 13.2843 21.4665C14.7167 22.6 16.3431 23.464 18.0843 24.0165C19.0999 24.422 20.2109 24.5261 21.2843 24.3165C22.2356 24.0553 23.0773 23.4942 23.6842 22.7165C23.8265 22.3627 23.9272 21.9935 23.9843 21.6165C24.0415 21.2856 24.0415 20.9474 23.9843 20.6165C23.9343 20.2665 20.3343 18.6165 19.9843 18.7165C19.6343 18.8165 19.3342 19.4665 18.9342 20.0165C18.5342 20.5665 18.3843 20.8165 17.9843 20.8165C17.5843 20.8165 15.8342 20.1165 14.1842 18.6165C13.2418 17.7993 12.5052 16.7715 12.0343 15.6165C12.0343 15.6165 12.3343 15.2665 12.7343 14.7165C13.0455 14.3755 13.2686 13.9635 13.3842 13.5165C13.3842 13.2665 11.9842 9.7165 11.6342 9.5665C11.0869 9.48955 10.5316 9.48955 9.98428 9.5665Z" fill="white"/>
</svg>
